<svg width="25" height="24" viewBox="0 0 25 24" fill="none" xmlns="http://www.w3.org/2000/svg">
<path d="M2.71484 4.44922C2.71484 3.90234 2.8776 3.47266 3.20312 3.16016C3.53516 2.84766 3.98112 2.69141 4.54102 2.69141H6.39648C6.50065 2.18359 6.73503 1.78971 7.09961 1.50977C7.4707 1.22331 7.95898 1.08008 8.56445 1.08008H16.4258C17.0378 1.08008 17.526 1.22331 17.8906 1.50977C18.2552 1.78971 18.4896 2.18359 18.5938 2.69141H20.4492C21.0091 2.69141 21.4518 2.84766 21.7773 3.16016C22.1094 3.47266 22.2754 3.90234 22.2754 4.44922C22.2754 5.77083 22.0573 6.93945 21.6211 7.95508C21.1849 8.96419 20.5339 9.82357 19.668 10.5332C18.8021 11.2363 17.7246 11.7897 16.4355 12.1934C16.1816 12.5124 15.9115 12.8053 15.625 13.0723C15.3451 13.3392 15.0651 13.5703 14.7852 13.7656V17.7109H15.918C16.6211 17.7109 17.1582 17.9062 17.5293 18.2969C17.9004 18.681 18.0859 19.2051 18.0859 19.8691V21.9297C18.0859 22.1901 17.998 22.4017 17.8223 22.5645C17.6465 22.7272 17.4349 22.8086 17.1875 22.8086H7.79297C7.55208 22.8086 7.34375 22.7272 7.16797 22.5645C6.99219 22.4017 6.9043 22.1901 6.9043 21.9297V19.8691C6.9043 19.2051 7.08984 18.681 7.46094 18.2969C7.83203 17.9062 8.36589 17.7109 9.0625 17.7109H10.2051V13.7559C9.92513 13.5605 9.64518 13.3327 9.36523 13.0723C9.08529 12.8053 8.81836 12.5124 8.56445 12.1934C7.26888 11.7897 6.18815 11.2363 5.32227 10.5332C4.45638 9.82357 3.80534 8.96419 3.36914 7.95508C2.93294 6.93945 2.71484 5.77083 2.71484 4.44922ZM4.3457 4.67383C4.3457 5.92383 4.58659 6.98828 5.06836 7.86719C5.55013 8.74609 6.25651 9.42969 7.1875 9.91797C6.92057 9.37109 6.70898 8.78516 6.55273 8.16016C6.39648 7.53516 6.31836 6.88411 6.31836 6.20703V4.40039H4.61914C4.54102 4.40039 4.47591 4.42969 4.42383 4.48828C4.37174 4.54036 4.3457 4.60221 4.3457 4.67383ZM8.07617 6.48047C8.07617 7.17057 8.18685 7.83464 8.4082 8.47266C8.62956 9.11068 8.91276 9.69987 9.25781 10.2402C9.60938 10.7806 9.98698 11.2526 10.3906 11.6562C10.7943 12.0599 11.1816 12.3757 11.5527 12.6035C11.9238 12.8249 12.2363 12.9355 12.4902 12.9355C12.7507 12.9355 13.0664 12.8249 13.4375 12.6035C13.8086 12.3757 14.196 12.0599 14.5996 11.6562C15.0033 11.2526 15.3776 10.7806 15.7227 10.2402C16.0742 9.69987 16.3607 9.11068 16.582 8.47266C16.8034 7.83464 16.9141 7.17057 16.9141 6.48047V3.4043C16.9141 3.23503 16.862 3.09831 16.7578 2.99414C16.6536 2.88997 16.5169 2.83789 16.3477 2.83789H8.64258C8.47331 2.83789 8.33659 2.88997 8.23242 2.99414C8.12826 3.09831 8.07617 3.23503 8.07617 3.4043V6.48047ZM8.66211 21.0508H16.3281V20.0156C16.3281 19.8529 16.276 19.7194 16.1719 19.6152C16.0742 19.5176 15.9408 19.4688 15.7715 19.4688H9.20898C9.04622 19.4688 8.91276 19.5176 8.80859 19.6152C8.71094 19.7194 8.66211 19.8529 8.66211 20.0156V21.0508ZM11.8848 17.7109H13.1055V14.5957C12.8906 14.6543 12.6855 14.6836 12.4902 14.6836C12.3014 14.6836 12.0996 14.6543 11.8848 14.5957V17.7109ZM17.8027 9.91797C18.7337 9.42969 19.4401 8.74609 19.9219 7.86719C20.4036 6.98828 20.6445 5.92383 20.6445 4.67383C20.6445 4.60221 20.6185 4.54036 20.5664 4.48828C20.5143 4.42969 20.4492 4.40039 20.3711 4.40039H18.6719V6.20703C18.6719 6.88411 18.5905 7.53516 18.4277 8.16016C18.2715 8.78516 18.0632 9.37109 17.8027 9.91797Z" fill="black"/>
</svg>
