<svg width="24" height="24" viewBox="0 0 24 24" fill="none" xmlns="http://www.w3.org/2000/svg">
<path d="M5.28125 21.0801C4.22656 21.0801 3.42904 20.8099 2.88867 20.2695C2.34831 19.7357 2.07812 18.9479 2.07812 17.9062V6.02148C2.07812 4.97331 2.34831 4.18229 2.88867 3.64844C3.42904 3.11458 4.22656 2.84766 5.28125 2.84766H18.7188C19.7799 2.84766 20.5775 3.11458 21.1113 3.64844C21.6517 4.18229 21.9219 4.97331 21.9219 6.02148V17.9062C21.9219 18.9479 21.6517 19.7357 21.1113 20.2695C20.5775 20.8099 19.7799 21.0801 18.7188 21.0801H5.28125ZM5.26172 19.1562H18.7285C19.1387 19.1562 19.4512 19.0521 19.666 18.8438C19.8874 18.6289 19.998 18.3099 19.998 17.8867V8.86328C19.998 8.4401 19.8874 8.12109 19.666 7.90625C19.4512 7.69141 19.1387 7.58398 18.7285 7.58398H5.26172C4.85156 7.58398 4.53906 7.69141 4.32422 7.90625C4.10938 8.12109 4.00195 8.4401 4.00195 8.86328V17.8867C4.00195 18.3099 4.10938 18.6289 4.32422 18.8438C4.53906 19.0521 4.85156 19.1562 5.26172 19.1562ZM10.125 10.9824C9.94922 10.9824 9.82552 10.9499 9.75391 10.8848C9.6888 10.8132 9.65625 10.6927 9.65625 10.5234V9.94727C9.65625 9.77148 9.6888 9.6543 9.75391 9.5957C9.82552 9.5306 9.94922 9.49805 10.125 9.49805H10.7012C10.8704 9.49805 10.9909 9.5306 11.0625 9.5957C11.1341 9.6543 11.1699 9.77148 11.1699 9.94727V10.5234C11.1699 10.6927 11.1341 10.8132 11.0625 10.8848C10.9909 10.9499 10.8704 10.9824 10.7012 10.9824H10.125ZM13.3086 10.9824C13.1393 10.9824 13.0189 10.9499 12.9473 10.8848C12.8822 10.8132 12.8496 10.6927 12.8496 10.5234V9.94727C12.8496 9.77148 12.8822 9.6543 12.9473 9.5957C13.0189 9.5306 13.1393 9.49805 13.3086 9.49805H13.8848C14.0671 9.49805 14.1908 9.5306 14.2559 9.5957C14.321 9.6543 14.3535 9.77148 14.3535 9.94727V10.5234C14.3535 10.6927 14.321 10.8132 14.2559 10.8848C14.1908 10.9499 14.0671 10.9824 13.8848 10.9824H13.3086ZM16.5117 10.9824C16.3359 10.9824 16.2122 10.9499 16.1406 10.8848C16.0755 10.8132 16.043 10.6927 16.043 10.5234V9.94727C16.043 9.77148 16.0755 9.6543 16.1406 9.5957C16.2122 9.5306 16.3359 9.49805 16.5117 9.49805H17.0781C17.2604 9.49805 17.3841 9.5306 17.4492 9.5957C17.5143 9.6543 17.5469 9.77148 17.5469 9.94727V10.5234C17.5469 10.6927 17.5143 10.8132 17.4492 10.8848C17.3841 10.9499 17.2604 10.9824 17.0781 10.9824H16.5117ZM6.93164 14.1172C6.75586 14.1172 6.63216 14.0846 6.56055 14.0195C6.49544 13.9544 6.46289 13.8372 6.46289 13.668V13.0918C6.46289 12.916 6.49544 12.7956 6.56055 12.7305C6.63216 12.6654 6.75586 12.6328 6.93164 12.6328H7.50781C7.67708 12.6328 7.79427 12.6654 7.85938 12.7305C7.93099 12.7956 7.9668 12.916 7.9668 13.0918V13.668C7.9668 13.8372 7.93099 13.9544 7.85938 14.0195C7.79427 14.0846 7.67708 14.1172 7.50781 14.1172H6.93164ZM10.125 14.1172C9.94922 14.1172 9.82552 14.0846 9.75391 14.0195C9.6888 13.9544 9.65625 13.8372 9.65625 13.668V13.0918C9.65625 12.916 9.6888 12.7956 9.75391 12.7305C9.82552 12.6654 9.94922 12.6328 10.125 12.6328H10.7012C10.8704 12.6328 10.9909 12.6654 11.0625 12.7305C11.1341 12.7956 11.1699 12.916 11.1699 13.0918V13.668C11.1699 13.8372 11.1341 13.9544 11.0625 14.0195C10.9909 14.0846 10.8704 14.1172 10.7012 14.1172H10.125ZM13.3086 14.1172C13.1393 14.1172 13.0189 14.0846 12.9473 14.0195C12.8822 13.9544 12.8496 13.8372 12.8496 13.668V13.0918C12.8496 12.916 12.8822 12.7956 12.9473 12.7305C13.0189 12.6654 13.1393 12.6328 13.3086 12.6328H13.8848C14.0671 12.6328 14.1908 12.6654 14.2559 12.7305C14.321 12.7956 14.3535 12.916 14.3535 13.0918V13.668C14.3535 13.8372 14.321 13.9544 14.2559 14.0195C14.1908 14.0846 14.0671 14.1172 13.8848 14.1172H13.3086ZM16.5117 14.1172C16.3359 14.1172 16.2122 14.0846 16.1406 14.0195C16.0755 13.9544 16.043 13.8372 16.043 13.668V13.0918C16.043 12.916 16.0755 12.7956 16.1406 12.7305C16.2122 12.6654 16.3359 12.6328 16.5117 12.6328H17.0781C17.2604 12.6328 17.3841 12.6654 17.4492 12.7305C17.5143 12.7956 17.5469 12.916 17.5469 13.0918V13.668C17.5469 13.8372 17.5143 13.9544 17.4492 14.0195C17.3841 14.0846 17.2604 14.1172 17.0781 14.1172H16.5117ZM6.93164 17.2617C6.75586 17.2617 6.63216 17.2324 6.56055 17.1738C6.49544 17.1087 6.46289 16.985 6.46289 16.8027V16.2363C6.46289 16.0605 6.49544 15.9401 6.56055 15.875C6.63216 15.8099 6.75586 15.7773 6.93164 15.7773H7.50781C7.67708 15.7773 7.79427 15.8099 7.85938 15.875C7.93099 15.9401 7.9668 16.0605 7.9668 16.2363V16.8027C7.9668 16.985 7.93099 17.1087 7.85938 17.1738C7.79427 17.2324 7.67708 17.2617 7.50781 17.2617H6.93164ZM10.125 17.2617C9.94922 17.2617 9.82552 17.2324 9.75391 17.1738C9.6888 17.1087 9.65625 16.985 9.65625 16.8027V16.2363C9.65625 16.0605 9.6888 15.9401 9.75391 15.875C9.82552 15.8099 9.94922 15.7773 10.125 15.7773H10.7012C10.8704 15.7773 10.9909 15.8099 11.0625 15.875C11.1341 15.9401 11.1699 16.0605 11.1699 16.2363V16.8027C11.1699 16.985 11.1341 17.1087 11.0625 17.1738C10.9909 17.2324 10.8704 17.2617 10.7012 17.2617H10.125ZM13.3086 17.2617C13.1393 17.2617 13.0189 17.2324 12.9473 17.1738C12.8822 17.1087 12.8496 16.985 12.8496 16.8027V16.2363C12.8496 16.0605 12.8822 15.9401 12.9473 15.875C13.0189 15.8099 13.1393 15.7773 13.3086 15.7773H13.8848C14.0671 15.7773 14.1908 15.8099 14.2559 15.875C14.321 15.9401 14.3535 16.0605 14.3535 16.2363V16.8027C14.3535 16.985 14.321 17.1087 14.2559 17.1738C14.1908 17.2324 14.0671 17.2617 13.8848 17.2617H13.3086Z" fill="black"/>
</svg>
