<svg width="24" height="24" viewBox="0 0 24 24" fill="none" xmlns="http://www.w3.org/2000/svg">
<path d="M11.0137 22.5449C10.61 22.5449 10.2585 22.431 9.95898 22.2031C9.65951 21.9753 9.46745 21.666 9.38281 21.2754L8.98242 19.5469L8.71875 19.459L7.22461 20.377C6.88607 20.5918 6.52799 20.6732 6.15039 20.6211C5.7793 20.5755 5.45052 20.4095 5.16406 20.123L3.79688 18.7656C3.50391 18.4727 3.33464 18.1406 3.28906 17.7695C3.24349 17.3984 3.32812 17.0436 3.54297 16.7051L4.48047 15.2109L4.39258 14.9668L2.66406 14.5664C2.27995 14.4753 1.9707 14.2799 1.73633 13.9805C1.50846 13.681 1.39453 13.3327 1.39453 12.9355V11.0117C1.39453 10.6146 1.50846 10.2695 1.73633 9.97656C1.96419 9.67708 2.27344 9.47852 2.66406 9.38086L4.37305 8.9707L4.4707 8.70703L3.5332 7.21289C3.32487 6.88086 3.24023 6.5293 3.2793 6.1582C3.32487 5.78711 3.49414 5.45508 3.78711 5.16211L5.1543 3.79492C5.44076 3.51497 5.76953 3.34896 6.14062 3.29688C6.51172 3.24479 6.86654 3.32292 7.20508 3.53125L8.70898 4.45898L8.98242 4.35156L9.38281 2.62305C9.46745 2.23893 9.65951 1.93294 9.95898 1.70508C10.2585 1.4707 10.61 1.35352 11.0137 1.35352H12.9961C13.3997 1.35352 13.748 1.4707 14.041 1.70508C14.334 1.93294 14.526 2.23893 14.6172 2.62305L15.0176 4.35156L15.291 4.45898L16.7949 3.53125C17.1335 3.32292 17.4883 3.24479 17.8594 3.29688C18.2305 3.34896 18.5592 3.51497 18.8457 3.79492L20.2129 5.16211C20.5059 5.45508 20.6719 5.78711 20.7109 6.1582C20.7565 6.5293 20.6751 6.88086 20.4668 7.21289L19.5293 8.70703L19.6367 8.9707L21.3359 9.38086C21.7201 9.47201 22.026 9.66732 22.2539 9.9668C22.4883 10.2663 22.6055 10.6146 22.6055 11.0117V12.9355C22.6055 13.3327 22.4883 13.681 22.2539 13.9805C22.026 14.2799 21.7201 14.4753 21.3359 14.5664L19.6172 14.9668L19.5195 15.2109L20.457 16.7051C20.6654 17.0436 20.7467 17.3984 20.7012 17.7695C20.6621 18.1406 20.4961 18.4727 20.2031 18.7656L18.8359 20.123C18.5495 20.4095 18.2174 20.5755 17.8398 20.6211C17.4688 20.6732 17.1139 20.5918 16.7754 20.377L15.2715 19.459L15.0176 19.5469L14.6172 21.2754C14.526 21.666 14.334 21.9753 14.041 22.2031C13.748 22.431 13.3997 22.5449 12.9961 22.5449H11.0137ZM11.2578 20.7773H12.752C12.9082 20.7773 12.9961 20.7025 13.0156 20.5527L13.6016 18.1504C13.9271 18.0788 14.2298 17.9844 14.5098 17.8672C14.7897 17.7435 15.0501 17.6068 15.291 17.457L17.3906 18.7461C17.5273 18.8372 17.6478 18.8242 17.752 18.707L18.7871 17.6621C18.8913 17.571 18.901 17.4538 18.8164 17.3105L17.5273 15.2207C17.6641 14.9863 17.791 14.7259 17.9082 14.4395C18.0319 14.153 18.1296 13.8568 18.2012 13.5508L20.6133 12.9746C20.763 12.9486 20.8379 12.8574 20.8379 12.7012V11.2363C20.8379 11.0866 20.763 10.9954 20.6133 10.9629L18.2109 10.3867C18.1328 10.0612 18.0286 9.75195 17.8984 9.45898C17.7747 9.16602 17.6543 8.91536 17.5371 8.70703L18.8262 6.60742C18.9173 6.4707 18.9076 6.34701 18.7969 6.23633L17.7617 5.2207C17.651 5.11654 17.5273 5.10026 17.3906 5.17188L15.291 6.45117C15.0501 6.31445 14.7865 6.1875 14.5 6.07031C14.2201 5.94661 13.9206 5.8457 13.6016 5.76758L13.0156 3.3457C12.9961 3.19596 12.9082 3.12109 12.752 3.12109H11.2578C11.0951 3.12109 11.0007 3.19596 10.9746 3.3457L10.4082 5.74805C10.0957 5.82617 9.78646 5.93034 9.48047 6.06055C9.18099 6.18424 8.92057 6.3112 8.69922 6.44141L6.59961 5.17188C6.4694 5.10026 6.34896 5.11328 6.23828 5.21094L5.19336 6.23633C5.08919 6.34701 5.07943 6.4707 5.16406 6.60742L6.45312 8.70703C6.34245 8.91536 6.22201 9.16602 6.0918 9.45898C5.96159 9.75195 5.86068 10.0612 5.78906 10.3867L3.38672 10.9629C3.23698 10.9954 3.16211 11.0866 3.16211 11.2363V12.7012C3.16211 12.8574 3.23698 12.9486 3.38672 12.9746L5.78906 13.541C5.86719 13.8535 5.9681 14.153 6.0918 14.4395C6.21549 14.7194 6.34245 14.9798 6.47266 15.2207L5.17383 17.3203C5.0957 17.457 5.10547 17.5742 5.20312 17.6719L6.24805 18.707C6.35221 18.8242 6.4694 18.8405 6.59961 18.7559L8.70898 17.457C8.94987 17.6068 9.21354 17.7435 9.5 17.8672C9.79297 17.9844 10.0924 18.0788 10.3984 18.1504L10.9746 20.5527C11.0007 20.7025 11.0951 20.7773 11.2578 20.7773ZM12 15.6504C11.3164 15.6504 10.6914 15.4844 10.125 15.1523C9.5651 14.8203 9.11914 14.3743 8.78711 13.8145C8.46159 13.248 8.29883 12.6263 8.29883 11.9492C8.29883 11.2656 8.46159 10.6439 8.78711 10.084C9.11914 9.52409 9.5651 9.07812 10.125 8.74609C10.6914 8.41406 11.3164 8.24805 12 8.24805C12.6836 8.24805 13.3053 8.41406 13.8652 8.74609C14.4251 9.07812 14.8711 9.52409 15.2031 10.084C15.5352 10.6439 15.7012 11.2656 15.7012 11.9492C15.7012 12.6263 15.5352 13.248 15.2031 13.8145C14.8711 14.3743 14.4251 14.8203 13.8652 15.1523C13.3053 15.4844 12.6836 15.6504 12 15.6504ZM12 13.9707C12.3711 13.9707 12.7096 13.8796 13.0156 13.6973C13.3216 13.515 13.5658 13.2708 13.748 12.9648C13.9303 12.6589 14.0215 12.3203 14.0215 11.9492C14.0215 11.5716 13.9303 11.2331 13.748 10.9336C13.5658 10.6276 13.3216 10.3835 13.0156 10.2012C12.7096 10.0189 12.3711 9.92773 12 9.92773C11.6224 9.92773 11.2806 10.0189 10.9746 10.2012C10.6751 10.3835 10.4342 10.6276 10.252 10.9336C10.0697 11.2331 9.97852 11.5716 9.97852 11.9492C9.97852 12.3203 10.0697 12.6589 10.252 12.9648C10.4342 13.2708 10.6751 13.515 10.9746 13.6973C11.2806 13.8796 11.6224 13.9707 12 13.9707Z" fill="black"/>
</svg>
